<svg xmlns="http://www.w3.org/2000/svg" xmlns:xlink="http://www.w3.org/1999/xlink" version="1.1" x="0px" y="0px" viewBox="0 0 100 125" enable-background="new 0 0 100 100" xml:space="preserve"><g><path d="M90.899,45.698C88.689,24.704,71.127,8.872,50.048,8.872c-1.443,0-2.908,0.077-4.352,0.229   c-22.552,2.373-38.969,22.649-36.596,45.2c2.208,20.994,19.771,36.826,40.851,36.826c1.443,0,2.907-0.077,4.352-0.229   C76.854,88.526,93.272,68.249,90.899,45.698z M45.501,86.049c-0.146-0.234-0.453-0.307-0.688-0.161   c-0.234,0.146-0.307,0.454-0.161,0.688c0.057,0.091,0.84,1.333,2.144,2.417c-4.175-0.333-8.17-1.32-11.882-2.864   c1.656-0.458,2.646-1.188,2.705-1.232c0.219-0.168,0.26-0.481,0.092-0.7c-0.167-0.218-0.48-0.259-0.7-0.094   c-0.017,0.013-1.413,1.054-3.677,1.327C21.298,79.78,12.569,68.159,11.089,54.093C8.832,32.639,24.45,13.348,45.905,11.09   c1.224-0.129,2.461-0.191,3.688-0.206v17.934c-0.095-0.084-0.184-0.175-0.281-0.257L26.466,63.875   c0.209,0.277,0.432,0.543,0.68,0.785l22.447-34.693v2.074L28.021,65.387c0.271,0.191,0.566,0.352,0.865,0.504L39.91,48.848   l0.059-0.092l9.624-14.873v2.077l-8.358,12.918c0.402,0.015,0.801,0.018,1.195-0.007l7.163-11.072v2.074l-5.7,8.813   c0.482-0.09,0.957-0.209,1.418-0.354l4.282-6.62v2.078l-2.456,3.796c0.729-0.371,1.414-0.814,2.048-1.322l0.408-0.631v29.689   c-0.665,0.246-1.063,0.353-1.084,0.357c-0.268,0.068-0.43,0.34-0.363,0.607c0.058,0.227,0.262,0.378,0.484,0.378   c0.041,0,0.082-0.005,0.123-0.015c0.019-0.005,0.321-0.084,0.84-0.266v5.935c-0.077-0.017-0.131-0.029-0.135-0.03   c-0.27-0.066-0.539,0.1-0.604,0.366c-0.065,0.269,0.099,0.539,0.366,0.604c0.028,0.007,0.164,0.039,0.373,0.083v5.775   c-0.275-0.005-0.551-0.011-0.826-0.019C46.813,88.116,45.518,86.076,45.501,86.049z"/><path d="M42.497,76.068c-2.128-0.181-3.999,1.42-4.183,3.507c-0.187,2.12,1.388,3.997,3.509,4.183   c0.115,0.01,0.229,0.015,0.342,0.015c1.979,0,3.666-1.547,3.839-3.521C46.19,78.131,44.616,76.254,42.497,76.068z M41.911,82.762   c-1.572-0.138-2.738-1.528-2.601-3.099c0.128-1.464,1.378-2.609,2.845-2.609c0.084,0,0.169,0.003,0.254,0.011   c1.57,0.138,2.736,1.528,2.599,3.099C44.872,81.711,43.476,82.903,41.911,82.762z"/><path d="M37.798,56.029l0.162-0.248l2.339-3.617c0.033-0.178,0.064-0.357,0.08-0.541c0.041-0.459,0.016-0.907-0.051-1.344   L29.952,66.318c0.334,0.105,0.682,0.18,1.039,0.234L37.798,56.029z"/><path d="M25.353,61.676c0.115,0.398,0.268,0.777,0.451,1.145l6.625-10.241c-0.482,0.249-1,0.435-1.543,0.544L25.353,61.676z"/><path d="M35.474,46.03c0.12,0.522,0.169,1.067,0.139,1.628l2.361-3.652c-0.525,0.547-1.189,0.953-1.938,1.154L35.474,46.03z"/><path d="M39.127,41.489c-0.038,0.431-0.153,0.833-0.308,1.212l9.589-14.824c-0.273-0.188-0.555-0.366-0.848-0.531l-8.483,13.115   C39.13,40.795,39.157,41.137,39.127,41.489z"/><path d="M46.551,26.832c-0.309-0.139-0.623-0.266-0.945-0.379l-7.628,11.791c0.245,0.259,0.469,0.537,0.642,0.85L46.551,26.832z"/><path d="M24.593,60.775l4.882-7.547c-0.091-0.004-0.18-0.002-0.271-0.01c-0.283-0.024-0.557-0.076-0.824-0.138l-5.283,8.165   C23.632,61.186,24.134,61.02,24.593,60.775z"/><path d="M46.273,19.293l1.113-1.722c-0.008-0.387-0.191-0.746-0.512-1.05l-2.394,3.701C45.237,19.934,45.825,19.617,46.273,19.293z   "/><path d="M41.422,29.002l-5.245,8.109c0.328,0.101,0.631,0.25,0.918,0.422l7.384-11.413c-0.341-0.083-0.684-0.151-1.036-0.206   c0.012,0.159,0.021,0.318,0.007,0.482C43.342,27.627,42.515,28.615,41.422,29.002z"/><path d="M26.403,52.22l-5.592,8.644c0.309,0.145,0.641,0.246,0.986,0.314l5.48-8.471C26.972,52.568,26.678,52.407,26.403,52.22z"/><path d="M42.638,20.791c0.055-0.014,0.105-0.028,0.158-0.041l3.113-4.812c-0.305-0.118-0.646-0.207-1.02-0.264l-3.543,5.476   C41.763,21.023,42.192,20.902,42.638,20.791z"/><path d="M38.997,28.834l-5.371,8.304c0.414-0.138,0.859-0.193,1.316-0.193l5.047-7.804C39.636,29.092,39.299,28.992,38.997,28.834z   "/><path d="M24.858,50.69l-5.689,8.794c0.199,0.283,0.428,0.543,0.693,0.77l5.667-8.76C25.282,51.246,25.058,50.979,24.858,50.69z"/><path d="M38.11,28.131c-0.246-0.283-0.437-0.61-0.565-0.967l-9.362,14.471c0.426-0.114,0.867-0.184,1.32-0.201L38.11,28.131z"/><path d="M19.975,54.322c0.248,0.363,0.386,0.801,0.37,1.269l3.904-6.035c-0.166-0.409-0.286-0.841-0.357-1.288L19.975,54.322z"/><path d="M39.61,21.757l3.973-6.139c-0.162,0.011-0.328,0.022-0.496,0.044c-0.246,0.031-0.514,0.068-0.793,0.107l-4.354,6.729   C38.466,22.236,39.022,21.988,39.61,21.757z"/><path d="M26.235,42.57l10.086-15.593c-0.699,0.341-1.359,0.746-1.975,1.212L18.038,53.397c0.12-0.01,0.241-0.016,0.365-0.005   c0.252,0.022,0.487,0.095,0.705,0.195l4.836-7.475C24.251,44.651,25.09,43.409,26.235,42.57z"/><path d="M39.625,16.113L15.577,53.285c0.248,0.227,0.506,0.441,0.779,0.639l24.71-38.198   C40.598,15.842,40.119,15.971,39.625,16.113z"/><path d="M36.38,17.213L14.142,51.59c0.193,0.299,0.404,0.586,0.633,0.861L37.94,16.643C37.429,16.816,36.907,17.008,36.38,17.213z"/><path d="M32.778,18.863L13.091,49.296c0.115,0.402,0.26,0.795,0.434,1.174l21.008-32.476C33.95,18.26,33.364,18.553,32.778,18.863z   "/><path d="M28.444,21.645l-10.797,16.69c-0.096,0.358-0.197,0.71-0.287,1.08c-0.234,0.125-0.457,0.271-0.68,0.415l-3.807,5.886   c-0.025,0.173-0.064,0.341-0.08,0.518c-0.043,0.49-0.041,0.974,0,1.447l17.828-27.56C29.89,20.587,29.163,21.094,28.444,21.645z"/><path d="M19.091,34.03l6.18-9.556C22.862,26.965,20.708,30.089,19.091,34.03z"/><path d="M38.819,42.701l-0.846,1.305C38.333,43.633,38.618,43.191,38.819,42.701z"/><path d="M35,77.588c-0.081-0.03-8.21-3.138-11.45-10.09c-0.117-0.251-0.414-0.361-0.664-0.242c-0.25,0.116-0.359,0.414-0.242,0.664   c3.416,7.33,11.658,10.475,12.007,10.605c0.058,0.021,0.116,0.031,0.175,0.031c0.203,0,0.393-0.124,0.469-0.325   C35.39,77.973,35.259,77.685,35,77.588z"/><path d="M39.354,73.604c0.08,0,0.163-0.02,0.24-0.062c0.241-0.133,0.33-0.438,0.197-0.679c-0.026-0.049-1.994-3.687-2.744-8.25   c1.086-1.081,1.816-2.513,1.96-4.141c0.01-0.117,0.01-0.229,0.014-0.342l-2.135,3.302c-0.069-0.623-0.104-1.261-0.113-1.902   l2.068-3.198c-0.1-0.414-0.238-0.816-0.413-1.199l-1.639,2.532c-0.064-0.179-0.226-0.314-0.428-0.331   c-0.283-0.021-0.516,0.182-0.539,0.457c-0.041,0.488-0.056,0.974-0.057,1.456l-3.502,5.411c0.439-0.01,0.869-0.057,1.285-0.143   l2.29-3.542c0.05,0.598,0.114,1.188,0.206,1.76l-0.754,1.165c0.305-0.155,0.592-0.338,0.869-0.533   c0.822,4.401,2.646,7.784,2.754,7.979C39.007,73.51,39.177,73.604,39.354,73.604z"/></g><text x="0" y="115" fill="#000000" font-size="5px" font-weight="bold" font-family="'Helvetica Neue', Helvetica, Arial-Unicode, Arial, Sans-serif">Created by mungang kim</text><text x="0" y="120" fill="#000000" font-size="5px" font-weight="bold" font-family="'Helvetica Neue', Helvetica, Arial-Unicode, Arial, Sans-serif">from the Noun Project</text></svg>