<svg xmlns="http://www.w3.org/2000/svg" xmlns:xlink="http://www.w3.org/1999/xlink" xml:space="preserve" version="1.1" style="shape-rendering:geometricPrecision;text-rendering:geometricPrecision;image-rendering:optimizeQuality;" viewBox="0 0 2540 3175" x="0px" y="0px" fill-rule="evenodd" clip-rule="evenodd"><defs><style type="text/css">
   
    .fil0 {fill:black;fill-rule:nonzero}
   
  </style></defs><g><path class="fil0" d="M1279 304c-3,-1 -6,-1 -9,-1 -267,0 -509,108 -684,283 -175,175 -283,417 -283,684 0,65 6,128 19,189 44,226 166,420 335,558 168,138 383,220 612,220 61,0 124,-6 187,-18l5 -1c223,-45 418,-166 557,-335 137,-167 219,-381 219,-613 0,-233 -82,-446 -219,-613 -139,-169 -335,-291 -558,-335 -3,-1 -7,-1 -10,-2l-171 -16zm170 1813c-197,-41 -369,-149 -491,-299 -123,-149 -196,-340 -196,-548 0,-209 73,-400 196,-549 122,-149 294,-257 491,-298 196,41 368,149 490,298 123,149 196,340 196,549 0,208 -73,399 -196,548 -122,150 -294,258 -490,299z"/></g><text x="0" y="2555" fill="#000000" font-size="5px" font-weight="bold" font-family="'Helvetica Neue', Helvetica, Arial-Unicode, Arial, Sans-serif">Created by fibo junior</text><text x="0" y="2560" fill="#000000" font-size="5px" font-weight="bold" font-family="'Helvetica Neue', Helvetica, Arial-Unicode, Arial, Sans-serif">from the Noun Project</text></svg>